<svg width="1313" height="177" viewBox="0 0 1313 177" fill="none" xmlns="http://www.w3.org/2000/svg">
    <path d="M119.485 171.388C108.632 175.234 97.1187 177.134 85.5319 176.993C73.9454 177.134 62.432 175.234 51.5792 171.388C42.3383 168.187 33.923 163.16 26.8933 156.64C20.5212 150.406 15.2611 143.234 11.3186 135.402C7.2911 127.728 4.30808 119.601 2.441 111.215C-0.813666 95.4604 -0.813666 79.2578 2.441 63.5037C4.13423 55.5298 6.90874 47.7965 10.6956 40.4961C14.6017 32.8206 19.8698 25.8367 26.2703 19.8483C33.3794 13.44 41.8476 8.53814 51.112 5.46863C62.1547 1.73802 73.8084 -0.109505 85.5319 0.0117122C97.5782 -0.168425 109.559 1.73071 120.887 5.61611C130.15 8.68769 138.618 13.5893 145.728 19.9958C152.128 25.9852 157.395 32.9688 161.303 40.6436C165.09 47.944 167.865 55.6773 169.557 63.6512C172.814 79.4053 172.814 95.6079 169.557 111.362C167.484 119.75 164.291 127.852 160.057 135.476C156.112 143.306 150.852 150.479 144.482 156.714C137.353 163.24 128.829 168.245 119.485 171.388ZM85.5319 151.552C95.2054 151.851 104.792 149.741 113.333 145.431C120.738 141.636 126.884 135.968 131.088 129.06C135.073 122.519 138.111 115.5 140.121 108.191C142.07 100.963 143.038 93.5291 143.003 86.0686C142.909 79.4274 141.995 72.8194 140.277 66.3795C138.614 59.6361 135.995 53.1369 132.49 47.0592C128.354 40.2122 122.178 34.6719 114.735 31.1309C105.802 26.9 95.9055 24.8229 85.9213 25.084C75.9379 24.8229 66.0406 26.9 57.1082 31.1309C49.6622 34.6682 43.4853 40.2095 39.3531 47.0592C35.8445 53.1354 33.2248 59.635 31.5657 66.3795C29.9592 72.7574 29.149 79.291 29.1516 85.8474C28.8734 91.659 29.1339 97.4824 29.9304 103.251C31.059 109.115 32.9149 114.833 35.4594 120.285C38.025 126.007 41.4908 131.327 45.7387 136.066C50.2723 140.995 55.9132 144.9 62.2479 147.496C69.6094 150.429 77.5483 151.837 85.5319 151.625V151.552Z" fill="white"/>
    <path d="M195 173.274V3.7265H224.521L289 151.749L353.479 3.7265H383V173.274H356.198V57.0234L308.188 173.274H269.967L222.035 57.0234V173.274H195Z" fill="white"/>
    <path d="M411 173.274V3.80019H438.049L541.952 134.369V3.7265H569V173.2H541.952L438.126 42.6317V173.274H411Z" fill="white"/>
    <path d="M1155 173.274V3.80019H1182.06L1285.94 134.442V3.7265H1313V173.2H1285.94L1181.75 42.6317V173.274H1155Z" fill="white"/>
    <path d="M1079.58 171.422C1057.61 178.859 1033.59 178.859 1011.62 171.422C1002.38 168.222 993.954 163.196 986.916 156.679C980.541 150.448 975.28 143.278 971.328 135.449C967.299 127.778 964.314 119.654 962.443 111.271C959.186 95.5227 959.186 79.3261 962.443 63.5778C964.142 55.607 966.917 47.8768 970.705 40.5788C974.617 32.9062 979.886 25.9249 986.293 19.9388C993.408 13.5346 1001.89 8.63477 1011.15 5.56441C1034.07 -1.8548 1058.94 -1.8548 1081.85 5.56441C1091.12 8.63477 1099.59 13.5346 1106.71 19.9388C1113.11 25.9258 1118.39 32.9069 1122.3 40.5788C1126.09 47.8768 1128.87 55.607 1130.56 63.5778C1133.81 79.3261 1133.81 95.5227 1130.56 111.271C1128.69 119.653 1125.7 127.777 1121.67 135.449C1117.73 143.276 1112.46 150.447 1106.08 156.679C1098.53 163.404 1089.48 168.442 1079.58 171.422ZM1045.6 151.593C1055.17 151.805 1064.61 149.671 1073.04 145.401C1080.45 141.607 1086.61 135.942 1090.81 129.036C1094.8 122.498 1097.84 115.481 1099.85 108.175C1101.81 100.95 1102.77 93.5184 1102.73 86.0607C1102.76 79.461 1101.98 72.8805 1100.39 66.4526C1098.73 59.7116 1096.11 53.2149 1092.6 47.1394C1088.46 40.295 1082.28 34.7567 1074.83 31.2171C1065.81 27.2319 1055.96 25.1667 1045.99 25.1667C1036.03 25.1667 1026.19 27.2319 1017.16 31.2171C1009.71 34.7531 1003.52 40.2923 999.386 47.1394C995.879 53.2133 993.252 59.7106 991.592 66.4526C989.987 72.8274 989.176 79.3593 989.176 85.9133C989.168 91.545 989.667 97.168 990.657 102.72C991.787 108.686 993.673 114.502 996.269 120.043C998.841 125.763 1002.31 131.081 1006.56 135.818C1010.84 140.765 1016.21 144.766 1022.3 147.539C1029.67 150.471 1037.61 151.878 1045.6 151.667V151.593Z" fill="white"/>
    <path d="M857.481 173.274V28.1896H786V3.7265H956V28.1159H884.519V173.274H857.481Z" fill="white"/>
    <path d="M596 173.274V148.811H667.383V28.1896H596V3.7265H766V28.1159H694.618V148.811H766V173.2L596 173.274Z" fill="white"/>
</svg>
