<svg width="150" height="21" viewBox="0 0 150 21" fill="none" xmlns="http://www.w3.org/2000/svg">
<path d="M13.6502 19.5798C12.4104 20.0191 11.0951 20.2362 9.77136 20.22C8.44769 20.2362 7.13237 20.0191 5.89252 19.5798C4.83682 19.2141 3.87544 18.6398 3.07235 17.8949C2.34439 17.1828 1.74346 16.3633 1.29306 15.4686C0.832952 14.5919 0.492165 13.6634 0.278865 12.7054C-0.092955 10.9056 -0.092955 9.05459 0.278865 7.2548C0.472303 6.34385 0.78927 5.46038 1.22189 4.62637C1.66813 3.7495 2.26997 2.95164 3.00118 2.26752C3.81333 1.53542 4.78076 0.975417 5.83914 0.624748C7.1007 0.198555 8.43203 -0.0125101 9.77136 0.00133802C11.1476 -0.0192413 12.5163 0.197721 13.8103 0.641597C14.8687 0.992501 15.836 1.55248 16.6483 2.28437C17.3794 2.9686 17.9812 3.76643 18.4276 4.64322C18.8602 5.47723 19.1772 6.3607 19.3706 7.27166C19.7427 9.07144 19.7427 10.9225 19.3706 12.7223C19.1337 13.6805 18.769 14.6061 18.2853 15.4771C17.8346 16.3716 17.2337 17.191 16.506 17.9033C15.6915 18.649 14.7177 19.2206 13.6502 19.5798ZM9.77136 17.3136C10.8765 17.3478 11.9716 17.1067 12.9474 16.6144C13.7934 16.1808 14.4956 15.5333 14.9758 14.7441C15.431 13.9968 15.7782 13.195 16.0078 12.36C16.2304 11.5342 16.3409 10.685 16.3369 9.83267C16.3263 9.07396 16.2218 8.31905 16.0256 7.58334C15.8356 6.81296 15.5363 6.07047 15.1359 5.37615C14.6634 4.59393 13.9579 3.961 13.1075 3.55646C12.0871 3.07312 10.9565 2.83582 9.81584 2.86566C8.67532 2.83582 7.54462 3.07312 6.52417 3.55646C5.67352 3.96057 4.96786 4.59362 4.49578 5.37615C4.09496 6.0703 3.79567 6.81284 3.60614 7.58334C3.42261 8.31197 3.33005 9.05838 3.33035 9.8074C3.29856 10.4713 3.32833 11.1366 3.41931 11.7956C3.54825 12.4656 3.76027 13.1188 4.05096 13.7416C4.34406 14.3953 4.74 15.0031 5.22529 15.5445C5.74321 16.1075 6.38765 16.5537 7.11134 16.8502C7.95234 17.1854 8.85929 17.3462 9.77136 17.322V17.3136Z" fill="#80829D"/>
<path d="M22.2772 19.7954V0.425903H25.6497L33.016 17.3363L40.3823 0.425903H43.7548V19.7954H40.6929V6.51466L35.2081 19.7954H30.8416L25.3657 6.51466V19.7954H22.2772Z" fill="#80829D"/>
<path d="M46.9536 19.7954V0.434321H50.0437L61.9139 15.3508V0.425903H65.0039V19.787H61.9139L50.0526 4.87052V19.7954H46.9536Z" fill="#80829D"/>
<path d="M131.95 19.7954V0.434321H135.041L146.908 15.3592V0.425903H150V19.787H146.908L135.006 4.87052V19.7954H131.95Z" fill="#80829D"/>
<path d="M123.334 19.5837C120.824 20.4333 118.08 20.4333 115.57 19.5837C114.514 19.2181 113.551 18.6439 112.747 17.8994C112.019 17.1875 111.418 16.3684 110.967 15.4741C110.506 14.5976 110.165 13.6695 109.952 12.7119C109.579 10.9127 109.579 9.06239 109.952 7.26327C110.146 6.35267 110.463 5.46955 110.895 4.63582C111.342 3.75928 111.944 2.96172 112.676 2.27785C113.489 1.54622 114.458 0.986456 115.517 0.635691C118.134 -0.211897 120.975 -0.211897 123.592 0.635691C124.652 0.986456 125.62 1.54622 126.433 2.27785C127.165 2.96182 127.767 3.75936 128.213 4.63582C128.647 5.46955 128.964 6.35267 129.157 7.26327C129.529 9.06239 129.529 10.9127 129.157 12.7119C128.944 13.6694 128.603 14.5976 128.142 15.4741C127.692 16.3682 127.09 17.1874 126.361 17.8994C125.499 18.6677 124.464 19.2432 123.334 19.5837ZM119.452 17.3183C120.545 17.3426 121.624 17.0988 122.586 16.6109C123.433 16.1775 124.136 15.5303 124.616 14.7414C125.072 13.9944 125.419 13.1928 125.649 12.3582C125.873 11.5327 125.983 10.6838 125.979 9.83177C125.982 9.0778 125.892 8.32603 125.711 7.59169C125.522 6.82159 125.222 6.07938 124.821 5.38532C124.348 4.6034 123.642 3.97069 122.791 3.56631C121.76 3.11104 120.635 2.87511 119.497 2.87511C118.359 2.87511 117.234 3.11104 116.202 3.56631C115.351 3.97027 114.645 4.60308 114.172 5.38532C113.771 6.07921 113.471 6.82147 113.282 7.59169C113.098 8.31997 113.006 9.06618 113.006 9.81492C113.005 10.4583 113.062 11.1007 113.175 11.735C113.304 12.4165 113.519 13.081 113.816 13.714C114.11 14.3674 114.506 14.975 114.991 15.5162C115.481 16.0813 116.094 16.5383 116.79 16.8551C117.632 17.1901 118.539 17.3509 119.452 17.3267V17.3183Z" fill="#80829D"/>
<path d="M97.9605 19.7954V3.22062H89.7944V0.425903H109.216V3.21221H101.049V19.7954H97.9605Z" fill="#80829D"/>
<path d="M68.0885 19.7954V17.0007H76.2435V3.22062H68.0885V0.425903H87.5097V3.21221H79.3548V17.0007H87.5097V19.787L68.0885 19.7954Z" fill="#80829D"/>
</svg>
